<svg xmlns="http://www.w3.org/2000/svg" xmlns:xlink="http://www.w3.org/1999/xlink" width="190" zoomAndPan="magnify" viewBox="0 0 142.5 30.000001" height="40" preserveAspectRatio="xMidYMid meet" version="1.0"><defs><g/><clipPath id="e31b58d803"><path d="M 2.054688 0 L 32 0 L 32 29.03125 L 2.054688 29.03125 Z M 2.054688 0 " clip-rule="nonzero"/></clipPath><clipPath id="53c0ab580a"><path d="M 139 21 L 139.960938 21 L 139.960938 22 L 139 22 Z M 139 21 " clip-rule="nonzero"/></clipPath></defs><g clip-path="url(#e31b58d803)"><path fill="#ac6aff" d="M 28.042969 8.347656 L 28.039062 4.5625 L 21.066406 0 L 21.066406 2.917969 L 25.667969 5.953125 L 25.667969 8.277344 L 23.535156 9.722656 L 22.074219 8.660156 L 22.074219 6.855469 L 19.703125 5.230469 L 19.703125 8.511719 L 15.9375 10.824219 L 15.929688 16.9375 L 13.265625 18.4375 L 11.902344 17.367188 L 11.902344 15.597656 L 13.519531 14.488281 L 13.519531 11.734375 L 10.609375 13.683594 L 8.382812 12.234375 L 6.351562 13.566406 L 9.527344 15.746094 L 9.527344 17.082031 L 7.238281 18.632812 L 4.902344 17.050781 L 4.902344 11.78125 L 8.367188 9.429688 L 8.371094 7.167969 L 12.820312 10.035156 L 16.558594 7.542969 L 14.277344 6.210938 L 12.785156 7.21875 L 9.539062 5.066406 L 13.203125 2.929688 L 16.375 4.792969 L 16.375 2.015625 L 13.207031 0.152344 L 6 4.359375 L 5.996094 8.144531 L 2.527344 10.5 L 2.527344 18.332031 L 5.996094 20.683594 L 6 24.46875 L 12.972656 29.03125 L 12.972656 26.117188 L 8.375 23.082031 L 8.371094 20.757812 L 10.507812 19.308594 L 11.964844 20.375 L 11.964844 22.179688 L 14.339844 23.804688 L 14.339844 20.523438 L 18.15625 18.210938 L 18.199219 12.097656 L 20.773438 10.597656 L 22.136719 11.667969 L 22.136719 13.4375 L 20.519531 14.546875 L 20.519531 17.300781 L 23.433594 15.347656 L 25.65625 16.800781 L 27.691406 15.464844 L 24.511719 13.285156 L 24.511719 11.949219 L 26.804688 10.398438 L 29.140625 11.984375 L 29.140625 17.253906 L 25.671875 19.605469 L 25.667969 21.867188 L 21.222656 18.996094 L 17.484375 21.472656 L 19.761719 22.800781 L 21.253906 21.8125 L 24.5 23.964844 L 20.839844 26.105469 L 17.664062 24.242188 L 17.664062 27.019531 L 20.835938 28.878906 L 28.039062 24.671875 L 28.042969 20.886719 L 31.511719 18.535156 L 31.511719 10.699219 Z M 28.042969 8.347656 " fill-opacity="1" fill-rule="nonzero"/></g><g fill="#ffffff" fill-opacity="1"><g transform="translate(39.555502, 21.910651)"><g><path d="M 7.078125 0.15625 C 5.921875 0.15625 4.890625 -0.03125 3.984375 -0.40625 C 3.078125 -0.78125 2.347656 -1.332031 1.796875 -2.0625 C 1.253906 -2.789062 0.96875 -3.671875 0.9375 -4.703125 L 5.015625 -4.703125 C 5.066406 -4.117188 5.265625 -3.671875 5.609375 -3.359375 C 5.953125 -3.054688 6.398438 -2.90625 6.953125 -2.90625 C 7.523438 -2.90625 7.972656 -3.035156 8.296875 -3.296875 C 8.628906 -3.554688 8.796875 -3.921875 8.796875 -4.390625 C 8.796875 -4.773438 8.664062 -5.09375 8.40625 -5.34375 C 8.144531 -5.601562 7.820312 -5.8125 7.4375 -5.96875 C 7.0625 -6.132812 6.519531 -6.320312 5.8125 -6.53125 C 4.800781 -6.84375 3.972656 -7.15625 3.328125 -7.46875 C 2.691406 -7.78125 2.140625 -8.242188 1.671875 -8.859375 C 1.210938 -9.472656 0.984375 -10.269531 0.984375 -11.25 C 0.984375 -12.71875 1.507812 -13.863281 2.5625 -14.6875 C 3.625 -15.519531 5.007812 -15.9375 6.71875 -15.9375 C 8.445312 -15.9375 9.835938 -15.519531 10.890625 -14.6875 C 11.953125 -13.863281 12.519531 -12.710938 12.59375 -11.234375 L 8.453125 -11.234375 C 8.421875 -11.742188 8.234375 -12.140625 7.890625 -12.421875 C 7.554688 -12.710938 7.117188 -12.859375 6.578125 -12.859375 C 6.117188 -12.859375 5.742188 -12.734375 5.453125 -12.484375 C 5.171875 -12.242188 5.03125 -11.894531 5.03125 -11.4375 C 5.03125 -10.925781 5.269531 -10.53125 5.75 -10.25 C 6.226562 -9.96875 6.972656 -9.660156 7.984375 -9.328125 C 9.003906 -8.984375 9.828125 -8.65625 10.453125 -8.34375 C 11.085938 -8.03125 11.632812 -7.578125 12.09375 -6.984375 C 12.5625 -6.390625 12.796875 -5.617188 12.796875 -4.671875 C 12.796875 -3.773438 12.566406 -2.960938 12.109375 -2.234375 C 11.660156 -1.503906 11.003906 -0.921875 10.140625 -0.484375 C 9.273438 -0.0546875 8.253906 0.15625 7.078125 0.15625 Z M 7.078125 0.15625 "/></g></g></g><g fill="#ffffff" fill-opacity="1"><g transform="translate(53.312114, 21.910651)"><g><path d="M 14.140625 -12.484375 L 6.3125 5.921875 L 2.1875 5.921875 L 5.0625 -0.421875 L -0.015625 -12.484375 L 4.25 -12.484375 L 7.140625 -4.671875 L 10 -12.484375 Z M 14.140625 -12.484375 "/></g></g></g><g fill="#ffffff" fill-opacity="1"><g transform="translate(67.448991, 21.910651)"><g><path d="M 9 -12.625 C 10.457031 -12.625 11.625 -12.148438 12.5 -11.203125 C 13.375 -10.253906 13.8125 -8.953125 13.8125 -7.296875 L 13.8125 0 L 10 0 L 10 -6.78125 C 10 -7.613281 9.78125 -8.257812 9.34375 -8.71875 C 8.914062 -9.1875 8.335938 -9.421875 7.609375 -9.421875 C 6.878906 -9.421875 6.296875 -9.1875 5.859375 -8.71875 C 5.429688 -8.257812 5.21875 -7.613281 5.21875 -6.78125 L 5.21875 0 L 1.390625 0 L 1.390625 -12.484375 L 5.21875 -12.484375 L 5.21875 -10.828125 C 5.601562 -11.378906 6.125 -11.816406 6.78125 -12.140625 C 7.4375 -12.460938 8.175781 -12.625 9 -12.625 Z M 9 -12.625 "/></g></g></g><g fill="#ffffff" fill-opacity="1"><g transform="translate(82.525348, 21.910651)"><g><path d="M 0.625 -6.265625 C 0.625 -7.546875 0.863281 -8.671875 1.34375 -9.640625 C 1.832031 -10.609375 2.492188 -11.351562 3.328125 -11.875 C 4.171875 -12.40625 5.101562 -12.671875 6.125 -12.671875 C 7.007812 -12.671875 7.78125 -12.488281 8.4375 -12.125 C 9.101562 -11.769531 9.617188 -11.300781 9.984375 -10.71875 L 9.984375 -12.484375 L 13.8125 -12.484375 L 13.8125 0 L 9.984375 0 L 9.984375 -1.765625 C 9.609375 -1.179688 9.085938 -0.710938 8.421875 -0.359375 C 7.753906 -0.00390625 6.984375 0.171875 6.109375 0.171875 C 5.097656 0.171875 4.171875 -0.0859375 3.328125 -0.609375 C 2.492188 -1.140625 1.832031 -1.894531 1.34375 -2.875 C 0.863281 -3.851562 0.625 -4.984375 0.625 -6.265625 Z M 9.984375 -6.25 C 9.984375 -7.195312 9.71875 -7.945312 9.1875 -8.5 C 8.65625 -9.050781 8.007812 -9.328125 7.25 -9.328125 C 6.488281 -9.328125 5.84375 -9.054688 5.3125 -8.515625 C 4.78125 -7.972656 4.515625 -7.222656 4.515625 -6.265625 C 4.515625 -5.304688 4.78125 -4.546875 5.3125 -3.984375 C 5.84375 -3.429688 6.488281 -3.15625 7.25 -3.15625 C 8.007812 -3.15625 8.65625 -3.429688 9.1875 -3.984375 C 9.71875 -4.535156 9.984375 -5.289062 9.984375 -6.25 Z M 9.984375 -6.25 "/></g></g></g><g fill="#ffffff" fill-opacity="1"><g transform="translate(97.713543, 21.910651)"><g><path d="M 5.21875 -10.71875 C 5.582031 -11.300781 6.09375 -11.769531 6.75 -12.125 C 7.40625 -12.488281 8.175781 -12.671875 9.0625 -12.671875 C 10.09375 -12.671875 11.023438 -12.40625 11.859375 -11.875 C 12.691406 -11.351562 13.347656 -10.609375 13.828125 -9.640625 C 14.316406 -8.671875 14.5625 -7.546875 14.5625 -6.265625 C 14.5625 -4.984375 14.316406 -3.851562 13.828125 -2.875 C 13.347656 -1.894531 12.691406 -1.140625 11.859375 -0.609375 C 11.023438 -0.0859375 10.09375 0.171875 9.0625 0.171875 C 8.195312 0.171875 7.429688 -0.00390625 6.765625 -0.359375 C 6.097656 -0.710938 5.582031 -1.175781 5.21875 -1.75 L 5.21875 5.953125 L 1.390625 5.953125 L 1.390625 -12.484375 L 5.21875 -12.484375 Z M 10.671875 -6.265625 C 10.671875 -7.222656 10.40625 -7.972656 9.875 -8.515625 C 9.34375 -9.054688 8.691406 -9.328125 7.921875 -9.328125 C 7.160156 -9.328125 6.515625 -9.050781 5.984375 -8.5 C 5.453125 -7.945312 5.1875 -7.195312 5.1875 -6.25 C 5.1875 -5.289062 5.453125 -4.535156 5.984375 -3.984375 C 6.515625 -3.429688 7.160156 -3.15625 7.921875 -3.15625 C 8.679688 -3.15625 9.328125 -3.429688 9.859375 -3.984375 C 10.398438 -4.546875 10.671875 -5.304688 10.671875 -6.265625 Z M 10.671875 -6.265625 "/></g></g></g><g fill="#ffffff" fill-opacity="1"><g transform="translate(112.901739, 21.910651)"><g><path d="M 6.46875 0.171875 C 5.375 0.171875 4.398438 -0.0078125 3.546875 -0.375 C 2.703125 -0.75 2.035156 -1.257812 1.546875 -1.90625 C 1.054688 -2.5625 0.78125 -3.289062 0.71875 -4.09375 L 4.5 -4.09375 C 4.539062 -3.664062 4.738281 -3.316406 5.09375 -3.046875 C 5.457031 -2.773438 5.898438 -2.640625 6.421875 -2.640625 C 6.898438 -2.640625 7.269531 -2.734375 7.53125 -2.921875 C 7.789062 -3.109375 7.921875 -3.347656 7.921875 -3.640625 C 7.921875 -4.003906 7.734375 -4.269531 7.359375 -4.4375 C 6.984375 -4.613281 6.378906 -4.804688 5.546875 -5.015625 C 4.648438 -5.222656 3.90625 -5.441406 3.3125 -5.671875 C 2.71875 -5.898438 2.203125 -6.265625 1.765625 -6.765625 C 1.335938 -7.265625 1.125 -7.941406 1.125 -8.796875 C 1.125 -9.515625 1.316406 -10.164062 1.703125 -10.75 C 2.097656 -11.34375 2.679688 -11.8125 3.453125 -12.15625 C 4.222656 -12.5 5.140625 -12.671875 6.203125 -12.671875 C 7.765625 -12.671875 8.992188 -12.28125 9.890625 -11.5 C 10.796875 -10.726562 11.316406 -9.695312 11.453125 -8.40625 L 7.921875 -8.40625 C 7.859375 -8.84375 7.664062 -9.1875 7.34375 -9.4375 C 7.03125 -9.695312 6.613281 -9.828125 6.09375 -9.828125 C 5.644531 -9.828125 5.300781 -9.738281 5.0625 -9.5625 C 4.820312 -9.394531 4.703125 -9.160156 4.703125 -8.859375 C 4.703125 -8.503906 4.890625 -8.234375 5.265625 -8.046875 C 5.648438 -7.867188 6.242188 -7.691406 7.046875 -7.515625 C 7.972656 -7.273438 8.726562 -7.039062 9.3125 -6.8125 C 9.894531 -6.582031 10.40625 -6.207031 10.84375 -5.6875 C 11.28125 -5.175781 11.503906 -4.488281 11.515625 -3.625 C 11.515625 -2.894531 11.3125 -2.242188 10.90625 -1.671875 C 10.5 -1.097656 9.910156 -0.644531 9.140625 -0.3125 C 8.367188 0.0078125 7.476562 0.171875 6.46875 0.171875 Z M 6.46875 0.171875 "/></g></g></g><g fill="#ffffff" fill-opacity="1"><g transform="translate(125.383356, 21.910651)"><g><path d="M 13.15625 -6.4375 C 13.15625 -6.082031 13.132812 -5.710938 13.09375 -5.328125 L 4.4375 -5.328125 C 4.488281 -4.546875 4.734375 -3.953125 5.171875 -3.546875 C 5.617188 -3.140625 6.160156 -2.9375 6.796875 -2.9375 C 7.753906 -2.9375 8.421875 -3.335938 8.796875 -4.140625 L 12.859375 -4.140625 C 12.648438 -3.316406 12.273438 -2.578125 11.734375 -1.921875 C 11.191406 -1.265625 10.507812 -0.75 9.6875 -0.375 C 8.863281 -0.0078125 7.945312 0.171875 6.9375 0.171875 C 5.707031 0.171875 4.613281 -0.0859375 3.65625 -0.609375 C 2.707031 -1.128906 1.960938 -1.875 1.421875 -2.84375 C 0.890625 -3.8125 0.625 -4.945312 0.625 -6.25 C 0.625 -7.539062 0.890625 -8.671875 1.421875 -9.640625 C 1.953125 -10.609375 2.691406 -11.351562 3.640625 -11.875 C 4.597656 -12.40625 5.695312 -12.671875 6.9375 -12.671875 C 8.144531 -12.671875 9.21875 -12.414062 10.15625 -11.90625 C 11.09375 -11.394531 11.828125 -10.671875 12.359375 -9.734375 C 12.890625 -8.796875 13.15625 -7.695312 13.15625 -6.4375 Z M 9.234375 -7.453125 C 9.234375 -8.109375 9.007812 -8.628906 8.5625 -9.015625 C 8.113281 -9.398438 7.554688 -9.59375 6.890625 -9.59375 C 6.242188 -9.59375 5.703125 -9.40625 5.265625 -9.03125 C 4.828125 -8.664062 4.554688 -8.140625 4.453125 -7.453125 Z M 9.234375 -7.453125 "/></g></g></g><g clip-path="url(#53c0ab580a)"><g fill="#ffffff" fill-opacity="1"><g transform="translate(139.17357, 21.910651)"><g/></g></g></g></svg>