<svg xmlns="http://www.w3.org/2000/svg" xmlns:xlink="http://www.w3.org/1999/xlink" width="1080" zoomAndPan="magnify" viewBox="0 0 810 809.999993" height="1080" preserveAspectRatio="xMidYMid meet" version="1.0"><defs><g/><clipPath id="0aa998eaa8"><path d="M 153 352.078125 L 260 352.078125 L 260 457.828125 L 153 457.828125 Z M 153 352.078125 " clip-rule="nonzero"/></clipPath></defs><g clip-path="url(#0aa998eaa8)"><path fill="#ac6aff" d="M 246.800781 382.480469 L 246.78125 368.699219 L 221.324219 352.078125 L 221.324219 362.710938 L 238.113281 373.753906 L 238.128906 382.21875 L 230.328125 387.496094 L 225.003906 383.617188 L 225.003906 377.050781 L 216.332031 371.121094 L 216.332031 383.078125 L 202.585938 391.507812 L 202.558594 413.769531 L 192.839844 419.234375 L 187.851562 415.332031 L 187.851562 408.886719 L 193.757812 404.84375 L 193.757812 394.816406 L 183.128906 401.921875 L 175 396.640625 L 167.578125 401.496094 L 179.175781 409.429688 L 179.175781 414.300781 L 170.816406 419.953125 L 162.289062 414.183594 L 162.289062 394.984375 L 174.949219 386.421875 L 174.960938 378.183594 L 191.203125 388.632812 L 204.851562 379.554688 L 196.527344 374.703125 L 191.085938 378.375 L 179.222656 370.539062 L 192.597656 362.746094 L 204.1875 369.53125 L 204.1875 359.414062 L 192.613281 352.632812 L 166.300781 367.960938 L 166.285156 381.746094 L 153.617188 390.316406 L 153.617188 418.851562 L 166.285156 427.421875 L 166.300781 441.207031 L 191.761719 457.828125 L 191.761719 447.203125 L 174.96875 436.15625 L 174.957031 427.691406 L 182.757812 422.414062 L 188.078125 426.292969 L 188.078125 432.863281 L 196.75 438.785156 L 196.75 426.828125 L 210.695312 418.402344 L 210.851562 396.140625 L 220.246094 390.671875 L 225.234375 394.578125 L 225.234375 401.023438 L 219.324219 405.066406 L 219.324219 415.09375 L 229.957031 407.988281 L 238.082031 413.269531 L 245.503906 408.414062 L 233.90625 400.472656 L 233.90625 395.609375 L 242.265625 389.957031 L 250.796875 395.726562 L 250.796875 414.921875 L 238.136719 423.488281 L 238.121094 431.726562 L 221.882812 421.269531 L 208.234375 430.289062 L 216.554688 435.132812 L 222 431.535156 L 233.859375 439.371094 L 220.484375 447.160156 L 208.898438 440.375 L 208.898438 450.488281 L 220.472656 457.269531 L 246.78125 441.949219 L 246.800781 428.160156 L 259.46875 419.589844 L 259.46875 391.054688 Z M 246.800781 382.480469 " fill-opacity="1" fill-rule="nonzero"/></g><g fill="#ffffff" fill-opacity="1"><g transform="translate(282.92788, 425.276511)"><g><path d="M 24.640625 0.546875 C 20.640625 0.546875 17.050781 -0.101562 13.875 -1.40625 C 10.707031 -2.707031 8.175781 -4.628906 6.28125 -7.171875 C 4.382812 -9.722656 3.382812 -12.789062 3.28125 -16.375 L 17.46875 -16.375 C 17.675781 -14.351562 18.378906 -12.804688 19.578125 -11.734375 C 20.773438 -10.671875 22.335938 -10.140625 24.265625 -10.140625 C 26.234375 -10.140625 27.789062 -10.59375 28.9375 -11.5 C 30.082031 -12.414062 30.65625 -13.675781 30.65625 -15.28125 C 30.65625 -16.632812 30.195312 -17.753906 29.28125 -18.640625 C 28.375 -19.523438 27.257812 -20.253906 25.9375 -20.828125 C 24.613281 -21.398438 22.726562 -22.050781 20.28125 -22.78125 C 16.738281 -23.863281 13.847656 -24.953125 11.609375 -26.046875 C 9.378906 -27.140625 7.457031 -28.753906 5.84375 -30.890625 C 4.238281 -33.023438 3.4375 -35.804688 3.4375 -39.234375 C 3.4375 -44.328125 5.28125 -48.316406 8.96875 -51.203125 C 12.664062 -54.085938 17.476562 -55.53125 23.40625 -55.53125 C 29.4375 -55.53125 34.296875 -54.085938 37.984375 -51.203125 C 41.679688 -48.316406 43.65625 -44.300781 43.90625 -39.15625 L 29.484375 -39.15625 C 29.378906 -40.925781 28.726562 -42.316406 27.53125 -43.328125 C 26.332031 -44.335938 24.800781 -44.84375 22.9375 -44.84375 C 21.320312 -44.84375 20.019531 -44.414062 19.03125 -43.5625 C 18.039062 -42.707031 17.546875 -41.472656 17.546875 -39.859375 C 17.546875 -38.085938 18.378906 -36.707031 20.046875 -35.71875 C 21.710938 -34.726562 24.3125 -33.664062 27.84375 -32.53125 C 31.382812 -31.332031 34.257812 -30.1875 36.46875 -29.09375 C 38.675781 -28 40.582031 -26.410156 42.1875 -24.328125 C 43.800781 -22.253906 44.609375 -19.578125 44.609375 -16.296875 C 44.609375 -13.179688 43.816406 -10.347656 42.234375 -7.796875 C 40.648438 -5.253906 38.347656 -3.226562 35.328125 -1.71875 C 32.316406 -0.207031 28.753906 0.546875 24.640625 0.546875 Z M 24.640625 0.546875 "/></g></g></g><g fill="#ffffff" fill-opacity="1"><g transform="translate(330.897916, 425.276511)"><g><path d="M 49.296875 -43.53125 L 22 20.671875 L 7.640625 20.671875 L 17.625 -1.484375 L -0.078125 -43.53125 L 14.8125 -43.53125 L 24.875 -16.296875 L 34.859375 -43.53125 Z M 49.296875 -43.53125 "/></g></g></g><g fill="#ffffff" fill-opacity="1"><g transform="translate(380.193957, 425.276511)"><g><path d="M 31.359375 -43.984375 C 36.453125 -43.984375 40.519531 -42.332031 43.5625 -39.03125 C 46.601562 -35.738281 48.125 -31.203125 48.125 -25.421875 L 48.125 0 L 34.859375 0 L 34.859375 -23.640625 C 34.859375 -26.546875 34.101562 -28.804688 32.59375 -30.421875 C 31.09375 -32.035156 29.066406 -32.84375 26.515625 -32.84375 C 23.972656 -32.84375 21.945312 -32.035156 20.4375 -30.421875 C 18.925781 -28.804688 18.171875 -26.546875 18.171875 -23.640625 L 18.171875 0 L 4.84375 0 L 4.84375 -43.53125 L 18.171875 -43.53125 L 18.171875 -37.75 C 19.523438 -39.675781 21.34375 -41.195312 23.625 -42.3125 C 25.914062 -43.425781 28.492188 -43.984375 31.359375 -43.984375 Z M 31.359375 -43.984375 "/></g></g></g><g fill="#ffffff" fill-opacity="1"><g transform="translate(432.766006, 425.276511)"><g><path d="M 2.1875 -21.84375 C 2.1875 -26.3125 3.03125 -30.234375 4.71875 -33.609375 C 6.40625 -36.992188 8.703125 -39.59375 11.609375 -41.40625 C 14.523438 -43.226562 17.78125 -44.140625 21.375 -44.140625 C 24.4375 -44.140625 27.125 -43.515625 29.4375 -42.265625 C 31.757812 -41.023438 33.539062 -39.390625 34.78125 -37.359375 L 34.78125 -43.53125 L 48.125 -43.53125 L 48.125 0 L 34.78125 0 L 34.78125 -6.15625 C 33.488281 -4.132812 31.679688 -2.5 29.359375 -1.25 C 27.046875 0 24.359375 0.625 21.296875 0.625 C 17.753906 0.625 14.523438 -0.296875 11.609375 -2.140625 C 8.703125 -3.984375 6.40625 -6.609375 4.71875 -10.015625 C 3.03125 -13.421875 2.1875 -17.363281 2.1875 -21.84375 Z M 34.78125 -21.765625 C 34.78125 -25.085938 33.859375 -27.710938 32.015625 -29.640625 C 30.171875 -31.566406 27.921875 -32.53125 25.265625 -32.53125 C 22.617188 -32.53125 20.367188 -31.578125 18.515625 -29.671875 C 16.671875 -27.773438 15.75 -25.164062 15.75 -21.84375 C 15.75 -18.507812 16.671875 -15.867188 18.515625 -13.921875 C 20.367188 -11.972656 22.617188 -11 25.265625 -11 C 27.921875 -11 30.171875 -11.957031 32.015625 -13.875 C 33.859375 -15.800781 34.78125 -18.429688 34.78125 -21.765625 Z M 34.78125 -21.765625 "/></g></g></g><g fill="#ffffff" fill-opacity="1"><g transform="translate(485.728047, 425.276511)"><g><path d="M 18.171875 -37.359375 C 19.472656 -39.390625 21.265625 -41.023438 23.546875 -42.265625 C 25.835938 -43.515625 28.519531 -44.140625 31.59375 -44.140625 C 35.175781 -44.140625 38.421875 -43.226562 41.328125 -41.40625 C 44.242188 -39.59375 46.546875 -36.992188 48.234375 -33.609375 C 49.929688 -30.234375 50.78125 -26.3125 50.78125 -21.84375 C 50.78125 -17.363281 49.929688 -13.421875 48.234375 -10.015625 C 46.546875 -6.609375 44.242188 -3.984375 41.328125 -2.140625 C 38.421875 -0.296875 35.175781 0.625 31.59375 0.625 C 28.570312 0.625 25.90625 0 23.59375 -1.25 C 21.28125 -2.5 19.472656 -4.109375 18.171875 -6.078125 L 18.171875 20.75 L 4.84375 20.75 L 4.84375 -43.53125 L 18.171875 -43.53125 Z M 37.203125 -21.84375 C 37.203125 -25.164062 36.28125 -27.773438 34.4375 -29.671875 C 32.59375 -31.578125 30.316406 -32.53125 27.609375 -32.53125 C 24.960938 -32.53125 22.710938 -31.566406 20.859375 -29.640625 C 19.015625 -27.710938 18.09375 -25.085938 18.09375 -21.765625 C 18.09375 -18.429688 19.015625 -15.800781 20.859375 -13.875 C 22.710938 -11.957031 24.960938 -11 27.609375 -11 C 30.265625 -11 32.523438 -11.972656 34.390625 -13.921875 C 36.265625 -15.867188 37.203125 -18.507812 37.203125 -21.84375 Z M 37.203125 -21.84375 "/></g></g></g><g fill="#ffffff" fill-opacity="1"><g transform="translate(538.690088, 425.276511)"><g><path d="M 22.546875 0.625 C 18.742188 0.625 15.359375 -0.0234375 12.390625 -1.328125 C 9.429688 -2.628906 7.09375 -4.410156 5.375 -6.671875 C 3.664062 -8.929688 2.707031 -11.46875 2.5 -14.28125 L 15.671875 -14.28125 C 15.828125 -12.769531 16.53125 -11.546875 17.78125 -10.609375 C 19.03125 -9.671875 20.566406 -9.203125 22.390625 -9.203125 C 24.046875 -9.203125 25.328125 -9.523438 26.234375 -10.171875 C 27.148438 -10.828125 27.609375 -11.675781 27.609375 -12.71875 C 27.609375 -13.96875 26.957031 -14.890625 25.65625 -15.484375 C 24.363281 -16.078125 22.257812 -16.738281 19.34375 -17.46875 C 16.21875 -18.195312 13.613281 -18.960938 11.53125 -19.765625 C 9.457031 -20.578125 7.664062 -21.851562 6.15625 -23.59375 C 4.65625 -25.332031 3.90625 -27.6875 3.90625 -30.65625 C 3.90625 -33.144531 4.59375 -35.414062 5.96875 -37.46875 C 7.34375 -39.53125 9.367188 -41.15625 12.046875 -42.34375 C 14.722656 -43.539062 17.910156 -44.140625 21.609375 -44.140625 C 27.066406 -44.140625 31.367188 -42.785156 34.515625 -40.078125 C 37.660156 -37.378906 39.46875 -33.796875 39.9375 -29.328125 L 27.609375 -29.328125 C 27.398438 -30.835938 26.738281 -32.03125 25.625 -32.90625 C 24.507812 -33.789062 23.039062 -34.234375 21.21875 -34.234375 C 19.65625 -34.234375 18.457031 -33.9375 17.625 -33.34375 C 16.789062 -32.75 16.375 -31.929688 16.375 -30.890625 C 16.375 -29.640625 17.035156 -28.703125 18.359375 -28.078125 C 19.691406 -27.453125 21.757812 -26.828125 24.5625 -26.203125 C 27.789062 -25.367188 30.414062 -24.550781 32.4375 -23.75 C 34.46875 -22.945312 36.25 -21.644531 37.78125 -19.84375 C 39.320312 -18.050781 40.117188 -15.648438 40.171875 -12.640625 C 40.171875 -10.085938 39.453125 -7.8125 38.015625 -5.8125 C 36.585938 -3.8125 34.535156 -2.238281 31.859375 -1.09375 C 29.179688 0.0507812 26.078125 0.625 22.546875 0.625 Z M 22.546875 0.625 "/></g></g></g><g fill="#ffffff" fill-opacity="1"><g transform="translate(582.214118, 425.276511)"><g><path d="M 45.859375 -22.46875 C 45.859375 -21.21875 45.78125 -19.914062 45.625 -18.5625 L 15.4375 -18.5625 C 15.644531 -15.863281 16.515625 -13.796875 18.046875 -12.359375 C 19.585938 -10.929688 21.476562 -10.21875 23.71875 -10.21875 C 27.039062 -10.21875 29.351562 -11.625 30.65625 -14.4375 L 44.84375 -14.4375 C 44.125 -11.570312 42.8125 -8.992188 40.90625 -6.703125 C 39.007812 -4.421875 36.628906 -2.628906 33.765625 -1.328125 C 30.910156 -0.0234375 27.71875 0.625 24.1875 0.625 C 19.914062 0.625 16.113281 -0.285156 12.78125 -2.109375 C 9.457031 -3.929688 6.859375 -6.53125 4.984375 -9.90625 C 3.117188 -13.28125 2.1875 -17.234375 2.1875 -21.765625 C 2.1875 -26.285156 3.109375 -30.234375 4.953125 -33.609375 C 6.796875 -36.992188 9.378906 -39.59375 12.703125 -41.40625 C 16.035156 -43.226562 19.863281 -44.140625 24.1875 -44.140625 C 28.394531 -44.140625 32.132812 -43.253906 35.40625 -41.484375 C 38.6875 -39.722656 41.25 -37.203125 43.09375 -33.921875 C 44.9375 -30.648438 45.859375 -26.832031 45.859375 -22.46875 Z M 32.21875 -25.96875 C 32.21875 -28.257812 31.4375 -30.082031 29.875 -31.4375 C 28.3125 -32.789062 26.363281 -33.46875 24.03125 -33.46875 C 21.789062 -33.46875 19.898438 -32.816406 18.359375 -31.515625 C 16.828125 -30.210938 15.878906 -28.363281 15.515625 -25.96875 Z M 32.21875 -25.96875 "/></g></g></g></svg>